<svg id="Layer_1" data-name="Layer 1" xmlns="http://www.w3.org/2000/svg" viewBox="0 0 177.31 40.35"><defs><style>.cls-1{fill:#020504;}</style></defs><title>cleancult-logo</title><path class="cls-1" d="M11,23.28a3,3,0,0,1,.9.44l0.16,0.12L12,23.89a8,8,0,0,0-1.53,1.36A6.52,6.52,0,0,0,9.2,27.86,7.9,7.9,0,0,0,9,29v0.08l0-.1,0.22-.5a10.18,10.18,0,0,1,3.29-4.1,7.9,7.9,0,0,1,3.23-1.12,6.67,6.67,0,0,1,1.55.05,2.4,2.4,0,0,1,1.71,1,1.15,1.15,0,0,1,.1.56,1,1,0,0,1-.05.53,2.55,2.55,0,0,1-1.53,1.1,5.06,5.06,0,0,0-1.88,1.23,5.43,5.43,0,0,0-1.37,2.29A14.08,14.08,0,0,0,14,31.67c-0.44,2-1.24,3.12-2.65,3.58a6.76,6.76,0,0,1-2.94.13,4.4,4.4,0,0,1-2.58-2,7,7,0,0,1-.9-2.44,9.34,9.34,0,0,1,0-2,6.36,6.36,0,0,1,2-3.85C8.32,23.57,9.78,23,11,23.28Zm4.08-7a0.54,0.54,0,0,1-.28.15,6.2,6.2,0,0,0-1.72,1A8.77,8.77,0,0,0,12,18.61,6.12,6.12,0,0,0,10.82,22l0,0.52-0.32,0a4.27,4.27,0,0,0-1.78.36,0.63,0.63,0,0,1-.19.07,3.87,3.87,0,0,1-.07-0.8,5.89,5.89,0,0,1,4.38-5.71,5.1,5.1,0,0,1,1.63-.18A5,5,0,0,1,15.09,16.29Zm0.16-2.41a8.33,8.33,0,0,1,7.11,6.22,6.87,6.87,0,0,1,.23,2,7,7,0,0,1-.16,1.75,8.63,8.63,0,0,1-1.66,3.49,10.79,10.79,0,0,1-1.23,1.23,8.46,8.46,0,0,1-4.34,1.79l-0.23,0L15,30.14a5.51,5.51,0,0,1,.86-1.55,0.57,0.57,0,0,1,.38-0.23,7.23,7.23,0,0,0,1.34-.59,7.08,7.08,0,0,0,1.44-1.15,3.57,3.57,0,0,0,.78-1c0.16-.27.35-0.61,0.41-0.75a6.54,6.54,0,0,0-.07-5.66,6.11,6.11,0,0,0-1.32-1.81,6.25,6.25,0,0,0-2.49-1.52,6.11,6.11,0,0,0-2.07-.33,6.54,6.54,0,0,0-6.5,5.73,7.12,7.12,0,0,0,0,1.89l0,0.13L7.6,23.5a12.78,12.78,0,0,0-1.07.85l-0.17.15L6.3,24.24c0-.13-0.11-0.46-0.15-0.71a5.92,5.92,0,0,1-.08-1.41A6.39,6.39,0,0,1,6.29,20,8.29,8.29,0,0,1,15.25,13.88ZM25.41,21.6V32.86l-0.1.21a1.21,1.21,0,0,1-.58.56l-0.18.08H14l0.11-.27a10.91,10.91,0,0,0,.53-1.75c0.07-.33.13-0.6,0.14-0.61L15.27,31a9,9,0,0,0,8-7.93,11.8,11.8,0,0,0,0-2.27,9.2,9.2,0,0,0-1.59-3.93,9,9,0,0,0-6.28-3.7,11.61,11.61,0,0,0-2.13,0A9,9,0,0,0,5.47,23.56a12.45,12.45,0,0,0,.33,1.37l0,0.13-0.18.22a7.28,7.28,0,0,0-1.5,3.6,8.93,8.93,0,0,0,0,2,7.27,7.27,0,0,0,.76,2.38L5.2,33.74H4.78a1.13,1.13,0,0,1-.61-0.1,1.34,1.34,0,0,1-.58-0.58L3.5,32.86V10.33H25.42V21.6Zm5.08-.67v8.89l-0.1.19a1.33,1.33,0,0,1-.18.27s-0.5.34-1,.65l-1.89,1.14-1,.61c-0.05,0-.06-0.52-0.06-11.25V10.16l2.12-1.28,2.12-1.29V9.81C30.5,11,30.5,16,30.5,20.93ZM24.72,4a1.27,1.27,0,0,1,.59.58L25.4,4.75l0,5H3.48l0-5L3.58,4.6a1.28,1.28,0,0,1,.79-0.69c0.12,0,2.29,0,10.14,0h10Zm5.69-2.43,0.07,0.15V7L28.39,8.22c-1.15.7-2.1,1.27-2.12,1.27s0-1.07,0-2.39V4.71l-0.09-.25A2.48,2.48,0,0,0,26,4.13,0.1,0.1,0,0,1,26,4s4.31-2.62,4.33-2.62A0.42,0.42,0,0,1,30.42,1.56Zm-0.65-.65a0.23,0.23,0,0,1,.13.08s-1,.61-2.15,1.32L25.61,3.61,25.5,3.52a2.07,2.07,0,0,0-.62-0.35l-0.21-.08-19,0,1.7-1L9.26,0.92l0.15-.09h10.1C29.32,0.85,29.63.85,29.76,0.91ZM9.41,0a2.12,2.12,0,0,0-.88.38c-0.35.23-1.94,1.18-3.74,2.23a6.26,6.26,0,0,0-1.5,1,1.93,1.93,0,0,0-.56,1c-0.05.2-.06,0.94-0.06,14.21,0,13.45,0,14,.06,14.21a2,2,0,0,0,1,1.29L3.9,34.39l-0.36.08c-0.2.05-.55,0.15-0.78,0.23-2,.65-3,1.62-2.72,2.62C0.43,38.74,3.42,39.88,7,40a15.08,15.08,0,0,0,6.73-1.1c1.18-.56,1.84-1.36,1.71-2.06l0-.17,0.15,0a45,45,0,0,0,4.86,0A26,26,0,0,0,27,35.54a6.7,6.7,0,0,0,2.64-1.45,1.72,1.72,0,0,0,.48-0.74,1.41,1.41,0,0,0-.46-1.46l-0.19-.2,0.16-.1,0.47-.27A2.2,2.2,0,0,0,31.25,30c0.05-.2.06-0.73,0.06-14.23,0-13.33,0-14-.06-14.23A2,2,0,0,0,29.58,0C29.22,0,9.72,0,9.41,0Z"/><path class="cls-1" d="M10.57,5.54l0.07,0.07V8L10.57,8l-0.08.08H5.11L5,8,5,8V6.79C5,5.63,5,5.61,5,5.54L5.1,5.47h5.4ZM4.92,5a1,1,0,0,0-.47.49,10.51,10.51,0,0,0,0,1.36V8L4.49,8.21A0.76,0.76,0,0,0,5,8.62c0.24,0.07,5.43.07,5.67,0a0.75,0.75,0,0,0,.47-0.41L11.19,8V6.82a10.11,10.11,0,0,0,0-1.36A1,1,0,0,0,10.66,5C10.48,4.91,5.09,4.92,4.92,5Z"/><path class="cls-1" d="M22.31,5.93a1.13,1.13,0,0,1,.45.45,0.71,0.71,0,0,1,.08.4,0.89,0.89,0,0,1-.52.86,1,1,0,0,1-.82,0,1,1,0,0,1-.29-1.49A1.06,1.06,0,0,1,21.49,6a0.65,0.65,0,0,1,.46-0.09A1.06,1.06,0,0,1,22.31,5.93Zm-0.83-.56a1.49,1.49,0,0,0-.9,2.07,1.52,1.52,0,0,0,1.56.82A1.51,1.51,0,0,0,23.37,7a1.53,1.53,0,0,0-.74-1.54A1.57,1.57,0,0,0,21.48,5.37Z"/><polygon class="cls-1" points="13.63 5.63 13.64 5.9 17.79 5.9 17.8 5.63 17.81 5.37 13.61 5.37 13.63 5.63"/><path class="cls-1" d="M13.64,6.45a0.87,0.87,0,0,0,0,.27V7h4.19V6.44H15.73C14.59,6.43,13.65,6.44,13.64,6.45Z"/><path class="cls-1" d="M13.64,7.67a0.87,0.87,0,0,0,0,.27V8.19h4.19V7.66H15.73C14.59,7.65,13.65,7.66,13.64,7.67Z"/><path class="cls-1" d="M18.21,38.76a2.16,2.16,0,0,0-1.29.49,0.33,0.33,0,0,0-.13.28,0.51,0.51,0,0,0,.21.4c0.82,0.61,2.89.55,3.46-.1,0.32-.36,0-0.73-0.74-1A4.07,4.07,0,0,0,18.21,38.76Z"/><path class="cls-1" d="M46.47,32.05a9.29,9.29,0,0,1-3.53-.6,5.2,5.2,0,0,1-2.3-1.76A7.51,7.51,0,0,1,39.43,27a14.68,14.68,0,0,1-.37-3.47V14.66a15.25,15.25,0,0,1,.37-3.56,7.35,7.35,0,0,1,1.2-2.65,5.1,5.1,0,0,1,2.29-1.72,9.61,9.61,0,0,1,3.54-.58,9.85,9.85,0,0,1,3.37.51A4.91,4.91,0,0,1,52,8.15a6.24,6.24,0,0,1,1.16,2.28,11.29,11.29,0,0,1,.36,3v2.19h-5v-3c0-.11,0-0.29,0-0.55a3.26,3.26,0,0,0-.05-0.54l-0.11-.46a1.25,1.25,0,0,0-.17-0.44L48,10.33A0.86,0.86,0,0,0,47.59,10a3.49,3.49,0,0,0-.49-0.15,2.61,2.61,0,0,0-.62-0.07,2.29,2.29,0,0,0-1,.21,1.76,1.76,0,0,0-.65.51,2.22,2.22,0,0,0-.35.83,6.25,6.25,0,0,0-.15,1q0,0.45,0,1.14V24.77a6,6,0,0,0,.46,2.71,1.78,1.78,0,0,0,1.73.87,2.69,2.69,0,0,0,.85-0.12,1.21,1.21,0,0,0,.59-0.4,3.1,3.1,0,0,0,.35-0.55,2.38,2.38,0,0,0,.18-0.75q0.05-.49.07-0.82t0-.93V22.3h5v2.13a12.24,12.24,0,0,1-.34,3.07,6.92,6.92,0,0,1-1.12,2.38A4.82,4.82,0,0,1,49.9,31.5,9.4,9.4,0,0,1,46.47,32.05Z"/><path class="cls-1" d="M56.65,31.72V6.46h5.13V28.22h5.9v3.5h-11Z"/><path class="cls-1" d="M70.13,31.72V6.46h11V10H75.27v6.69h4.56v3.6H75.27v7.91h5.93v3.5H70.13Z"/><path class="cls-1" d="M82.53,31.72L87.47,6.46h5.64L98,31.72H93.26l-0.93-5.59h-4l-0.93,5.59H82.53Zm6.28-8.78h3L90.3,12.89Z"/><path class="cls-1" d="M100.53,31.72V6.46h3.58l5.64,13.12V6.46H114V31.72h-3.43l-5.67-14v14h-4.39Z"/><path class="cls-1" d="M124.78,32.05a9.29,9.29,0,0,1-3.53-.6,5.2,5.2,0,0,1-2.3-1.76,7.51,7.51,0,0,1-1.2-2.65,14.68,14.68,0,0,1-.37-3.47V14.66a15.25,15.25,0,0,1,.37-3.56,7.35,7.35,0,0,1,1.2-2.65,5.1,5.1,0,0,1,2.29-1.72,9.61,9.61,0,0,1,3.54-.58,9.85,9.85,0,0,1,3.37.51,4.91,4.91,0,0,1,2.19,1.5,6.24,6.24,0,0,1,1.16,2.28,11.29,11.29,0,0,1,.36,3v2.19h-5v-3c0-.11,0-0.29,0-0.55a3.26,3.26,0,0,0-.05-0.54l-0.11-.46a1.25,1.25,0,0,0-.17-0.44l-0.25-.33A0.86,0.86,0,0,0,125.9,10a3.49,3.49,0,0,0-.49-0.15,2.61,2.61,0,0,0-.62-0.07,2.29,2.29,0,0,0-1,.21,1.76,1.76,0,0,0-.65.51,2.22,2.22,0,0,0-.35.83,6.25,6.25,0,0,0-.15,1q0,0.45,0,1.14V24.77a6,6,0,0,0,.46,2.71,1.78,1.78,0,0,0,1.73.87,2.69,2.69,0,0,0,.85-0.12,1.21,1.21,0,0,0,.59-0.4,3.1,3.1,0,0,0,.35-0.55,2.38,2.38,0,0,0,.18-0.75q0.05-.49.07-0.82t0-.93V22.3h5v2.13a12.24,12.24,0,0,1-.34,3.07,6.92,6.92,0,0,1-1.12,2.38,4.82,4.82,0,0,1-2.19,1.62A9.4,9.4,0,0,1,124.78,32.05Z"/><path class="cls-1" d="M142.07,32.05a9.93,9.93,0,0,1-3.56-.56,4.84,4.84,0,0,1-2.25-1.69,7.12,7.12,0,0,1-1.15-2.64,16.91,16.91,0,0,1-.34-3.63V6.46h5V24.19q0,0.72,0,1.23a7.58,7.58,0,0,0,.17,1.09,2.81,2.81,0,0,0,.37.94,1.84,1.84,0,0,0,.66.59,2.08,2.08,0,0,0,1,.24,2.12,2.12,0,0,0,1-.24,1.76,1.76,0,0,0,.66-0.59,3.05,3.05,0,0,0,.37-0.94,6.42,6.42,0,0,0,.17-1.08q0-.5,0-1.23V6.46h5V23.54a16.94,16.94,0,0,1-.34,3.63,7.2,7.2,0,0,1-1.14,2.64,4.8,4.8,0,0,1-2.25,1.69A10,10,0,0,1,142.07,32.05Z"/><path class="cls-1" d="M152.94,31.72V6.46h5.13V28.22H164v3.5h-11Z"/><path class="cls-1" d="M168.2,31.72V10.25h-4V6.46h13.15v3.79h-4V31.72H168.2Z"/></svg>