<svg id="Layer_1" data-name="Layer 1" xmlns="http://www.w3.org/2000/svg" viewBox="0 0 55.69 80.12"><defs><style>.cls-1{fill:#fff;}.cls-2{fill:none;stroke:#fff;stroke-miterlimit:10;}</style></defs><title>logo-cocked</title><path class="cls-1" d="M5.31,79.15A9.51,9.51,0,0,1,1,66.44l20.12-41,17,8.37L18,74.81A9.51,9.51,0,0,1,5.31,79.15ZM22.16,28.6L3.07,67.47a7.16,7.16,0,1,0,12.85,6.31L35,34.92Z"/><path class="cls-1" d="M39.47,37.11L17.7,26.41l3.61-7.35L43.07,29.76,39.47,37.1h0ZM20.83,25.35L38.4,34l1.55-3.15L22.37,22.2Z"/><rect class="cls-1" x="20.55" y="36.71" width="2.34" height="15.54" transform="translate(-27.78 44.36) rotate(-63.84)"/><rect class="cls-1" x="13.19" y="56.2" width="13.44" height="2.34" transform="translate(-40.36 49.95) rotate(-63.84)"/><circle class="cls-2" cx="41.01" cy="19.18" r="2.63"/><path class="cls-2" d="M39.09,19.6a3.38,3.38,0,0,1,.71-2.24L40.87,18A3,3,0,0,0,39.09,19.6Z"/><circle class="cls-2" cx="31.22" cy="8.91" r="4.87" transform="translate(-1.25 8.9) rotate(-15.92)"/><path class="cls-2" d="M28,10.63a6.27,6.27,0,0,1,.13-4.36l2.25,0.66A5.53,5.53,0,0,0,28,10.63Z"/><circle class="cls-2" cx="49.44" cy="6.26" r="5.76" transform="translate(27.63 51.06) rotate(-71.26)"/><path class="cls-2" d="M45.15,5.77a7.4,7.4,0,0,1,3.06-4.15l1.74,2.16A6.53,6.53,0,0,0,45.15,5.77Z"/></svg>
