<svg id="Layer_1" data-name="Layer 1" xmlns="http://www.w3.org/2000/svg" viewBox="0 0 26.85 91.12"><defs><style>.cls-1{fill:#3498db;}.cls-2{fill:none;stroke:#3498db;stroke-miterlimit:10;}</style></defs><title>science</title><path class="cls-1" d="M12.88,91.12a9.51,9.51,0,0,1-9.47-9.52L3.53,36l19,0.05L22.4,81.65A9.51,9.51,0,0,1,12.88,91.12Zm-7-52.82L5.74,81.6a7.16,7.16,0,1,0,14.32,0l0.12-43.3Z"/><path class="cls-1" d="M25.15,38.35L0.9,38.28l0-8.18,24.25,0.07,0,8.18h0ZM3.24,36L22.82,36V32.5L3.25,32.45V36Z"/><rect class="cls-1" x="11.25" y="44.99" width="2.34" height="15.54" transform="translate(-40.37 65.04) rotate(-89.84)"/><rect class="cls-1" x="9.73" y="63.97" width="13.44" height="2.34" transform="translate(-48.73 81.41) rotate(-89.84)"/><circle class="cls-2" cx="18.68" cy="21.56" r="2.63" transform="translate(-7.56 10.37) rotate(-26)"/><path class="cls-2" d="M17.13,22.78a3.38,3.38,0,0,1-.34-2.33L18,20.6A3,3,0,0,0,17.13,22.78Z"/><circle class="cls-2" cx="5.37" cy="16.62" r="4.87" transform="translate(-9.73 7.84) rotate(-41.91)"/><path class="cls-2" d="M3.24,19.58a6.27,6.27,0,0,1-1.79-4l2.31-.39A5.53,5.53,0,0,0,3.24,19.58Z"/><circle class="cls-2" cx="20.59" cy="6.26" r="5.76" transform="translate(-0.63 2.65) rotate(-7.26)"/><path class="cls-2" d="M16.52,7.7a7.4,7.4,0,0,1,.93-5.06L20,3.81A6.53,6.53,0,0,0,16.52,7.7Z"/></svg>
